<?xml version="1.0" encoding="UTF-8"?>
<svg width="21px" height="22px" viewBox="0 0 21 22" version="1.1" xmlns="http://www.w3.org/2000/svg" xmlns:xlink="http://www.w3.org/1999/xlink">
    <title>Path</title>
    <g id="Symbols" stroke="none" stroke-width="1" fill="none" fill-rule="evenodd">
        <g id="icons/bofrost_star" fill="#20216B" fill-rule="nonzero">
            <polygon id="Path" points="10.5730041 5.77 11.6806521 9.6575 14.7342364 7.195 14.9859746 2.6225 16.9721889 3.02 16.4233997 5.715 16.2094222 6.18 16.5089906 5.8275 19.3838408 3.425 20.9496524 5.445 17.6921602 7.57 17.2717574 7.77 17.7802685 7.6825 20.7482618 7.8625 20.6475665 9.8725 15.8821626 8.88 12.6523615 11.065 15.9526492 13.2075 20.5720451 12.125 20.723088 14.1325 17.7425078 14.3125 17.236514 14.235 17.6569168 14.4275 21 16.5375 19.4593623 18.5975 16.4536082 16.155 16.149005 15.805 16.3705346 16.2675 17.0804363 19.07 15.1042915 19.52 14.7468233 14.8825 11.6000959 12.4175 10.532726 16.2025 12.9871733 20.2275 11.1167586 21.005 10.0015584 18.3525 9.92100216 17.8475 9.86813714 18.3075 8.90901462 22 6.47974107 21.175 7.84919684 17.7 8.09338288 17.305 7.71577559 17.6525 5.25881084 19.0975 4.21409734 17.375 8.58427236 15.5775 9.9713498 11.87 6.11723807 12 2.89750659 15.575 1.60860705 14.0225 3.81635099 12.1375 4.2745145 11.905 3.81635099 11.9975 0 12.2 0.0402781108 9.65 3.81886838 9.8675 4.27199712 9.975 3.82138576 9.7275 1.74454567 7.9 3.10393191 6.405 6.02409494 9.93 10.0040758 10.1425 8.6195157 6.3975 4.27199712 4.665 5.29908895 2.93 7.69311916 4.315 8.07072644 4.665 7.8265404 4.27 6.47722369 0.8225 8.91153201 0 9.90841525 3.76 9.96379765 4.22 10.0443539 3.715 11.139415 0.9625 13.0198993 1.7175"></polygon>
        </g>
    </g>
</svg>